<svg width="44" height="44" viewBox="0 0 44 44" fill="none" xmlns="http://www.w3.org/2000/svg">
<g clip-path="url(#clip0_2334_74)">
<path d="M36.5438 23.9085C36.1976 26.5484 35.1393 29.0443 33.4824 31.1285C31.8255 33.2126 29.6326 34.8065 27.1387 35.739C24.6449 36.6716 21.9442 36.9077 19.3263 36.4221C16.7085 35.9364 14.2722 34.7473 12.2788 32.9822C10.2854 31.2172 8.81006 28.9428 8.01101 26.403C7.21197 23.8632 7.11937 21.1538 7.74313 18.5654C8.3669 15.977 9.6835 13.6072 11.5517 11.7102C13.42 9.81313 15.7694 8.46044 18.348 7.79717C25.4961 5.96383 32.8955 9.64333 35.6271 16.5" stroke="white" stroke-width="2.75" stroke-linecap="round" stroke-linejoin="round"/>
<path d="M36.6667 7.33331V16.5H27.5" stroke="white" stroke-width="2.75" stroke-linecap="round" stroke-linejoin="round"/>
</g>
<defs>
<clipPath id="clip0_2334_74">
<rect width="44" height="44" fill="white"/>
</clipPath>
</defs>
</svg>
